<svg width="42" height="42" viewBox="0 0 42 42" fill="none" xmlns="http://www.w3.org/2000/svg">
<path d="M17.5 24.5H24.5V21H17.5V24.5ZM17.5 19.25H31.5V15.75H17.5V19.25ZM17.5 14H31.5V10.5H17.5V14ZM14 31.5C13.0375 31.5 12.2138 31.1576 11.529 30.4728C10.843 29.7868 10.5 28.9625 10.5 28V7C10.5 6.0375 10.843 5.21325 11.529 4.52725C12.2138 3.84242 13.0375 3.5 14 3.5H35C35.9625 3.5 36.7868 3.84242 37.4728 4.52725C38.1576 5.21325 38.5 6.0375 38.5 7V28C38.5 28.9625 38.1576 29.7868 37.4728 30.4728C36.7868 31.1576 35.9625 31.5 35 31.5H14ZM7 38.5C6.0375 38.5 5.21383 38.1576 4.529 37.4728C3.843 36.7868 3.5 35.9625 3.5 35V10.5H7V35H31.5V38.5H7Z" fill="black"/>
</svg>
